# Alias Wavefront OBJ File Exported from SketchUp
# with OBJexporter (c) 2010/2011 TIG
# Units = meters

mtllib model.mtl

g CubeECN_Main-Default_Material
usemtl Default_Material
v 6.167306 0.000000 -6.471915
v -3.572694 0.000000 3.268085
v -3.572694 0.000000 -6.471915
v 6.167306 0.000000 3.268085
vn 0.000000 -1.000000 -0.000000
vn 0.000000 -1.000000 -0.000000
vn 0.000000 -1.000000 -0.000000
vn 0.000000 -1.000000 -0.000000
vt -242.807331 254.799809
vt 140.657236 -128.664758
vt 140.657236 254.799809
vt -242.807331 -128.664758
f 1/1/1 2/2/2 3/3/3
f 2/2/2 1/1/1 4/4/4

g CubeECN_Main-logo_CENTRALE_NANTES
usemtl logo_CENTRALE_NANTES
v 6.167306 8.330000 3.268085
v -3.572694 8.330000 -6.471915
v -3.572694 8.330000 3.268085
v 6.167306 8.330000 -6.471915
v -3.572694 8.330000 -6.471915
v -3.572694 0.000000 3.268085
v -3.572694 8.330000 3.268085
v -3.572694 0.000000 -6.471915
v -3.572694 8.330000 -6.471915
v 6.167306 0.000000 -6.471915
v -3.572694 0.000000 -6.471915
v 6.167306 8.330000 -6.471915
v 6.167306 0.000000 -6.471915
v 6.167306 8.330000 3.268085
v 6.167306 0.000000 3.268085
v 6.167306 8.330000 -6.471915
v 6.167306 8.330000 3.268085
v -3.572694 0.000000 3.268085
v 6.167306 0.000000 3.268085
v -3.572694 8.330000 3.268085
vn 0.000000 1.000000 -0.000000
vn 0.000000 1.000000 -0.000000
vn 0.000000 1.000000 -0.000000
vn 0.000000 1.000000 -0.000000
vn -1.000000 0.000000 -0.000000
vn -1.000000 0.000000 -0.000000
vn -1.000000 0.000000 -0.000000
vn -1.000000 0.000000 -0.000000
vn -0.000000 0.000000 -1.000000
vn -0.000000 0.000000 -1.000000
vn -0.000000 0.000000 -1.000000
vn -0.000000 0.000000 -1.000000
vn 1.000000 0.000000 -0.000000
vn 1.000000 0.000000 -0.000000
vn 1.000000 0.000000 -0.000000
vn 1.000000 0.000000 -0.000000
vn -0.000000 -0.000000 1.000000
vn -0.000000 -0.000000 1.000000
vn -0.000000 -0.000000 1.000000
vn -0.000000 -0.000000 1.000000
vt 2.055769 -0.943076
vt -1.190898 1.867610
vt -1.190898 -0.943076
vt 2.055769 1.867610
vt -2.157305 2.403800
vt 1.089362 0.000000
vt 1.089362 2.403800
vt -2.157305 0.000000
vt 1.190898 2.403800
vt -2.055769 0.000000
vt 1.190898 0.000000
vt -2.055769 2.403800
vt 2.157305 0.000000
vt -1.089362 2.403800
vt -1.089362 0.000000
vt 2.157305 2.403800
vt 2.055769 2.403800
vt -1.190898 0.000000
vt 2.055769 0.000000
vt -1.190898 2.403800
f 5/5/5 6/6/6 7/7/7
f 6/6/6 5/5/5 8/8/8
f 9/9/9 10/10/10 11/11/11
f 10/10/10 9/9/9 12/12/12
f 13/13/13 14/14/14 15/15/15
f 14/14/14 13/13/13 16/16/16
f 17/17/17 18/18/18 19/19/19
f 18/18/18 17/17/17 20/20/20
f 21/21/21 22/22/22 23/23/23
f 22/22/22 21/21/21 24/24/24

